<?xml version="1.0" encoding="utf-8"?>
<!-- Generator: Adobe Illustrator 19.0.0, SVG Export Plug-In . SVG Version: 6.00 Build 0)  -->
<svg version="1.1" id="Layer_1" xmlns="http://www.w3.org/2000/svg" xmlns:xlink="http://www.w3.org/1999/xlink" x="0px" y="0px"
	 viewBox="0 0 161.6 99.8" style="enable-background:new 0 0 161.6 99.8;" xml:space="preserve">
<style type="text/css">
	.st0{fill:#FFFFFF;}
	.st1{fill:#EBF5FC;}
</style>
<g id="XMLID_4_">
	<path id="XMLID_212_" class="st0" d="M30.8,97.9h90c19.9,0,36-16.1,36-36s-16.1-36-36-36c-2,0-3.9,0.2-5.8,0.5
		c-7.7-13.7-22.4-23-39.2-23C52.5,3.4,33.3,21.2,31,43.9c-0.1,0-0.1,0-0.2,0c-14.9,0-27,12.1-27,27S15.9,97.9,30.8,97.9z"/>
	<path id="XMLID_94_" class="st1" d="M143,78.1c-5.3,2.8-11.1,4.1-17.2,3.9h-0.7c-8.1,0-15.6-2.1-22.6-6.1l-2.6-2
		C92.5,79,83.3,82,74.5,82c-10.6,0-20-3.7-27.4-9.7c-4.9,4.1-10.4,7-16.7,8.8c-4,0.5-7.9,1.1-11.9,1.6c-2.7,0.1-5.2-0.1-7.8-0.6
		c3.9,7,11.5,11.8,20.1,11.8h90c13,0,24.2-7.8,29.2-19C147.8,76.2,145.5,77.3,143,78.1z"/>
</g>
</svg>
