<?xml version="1.0" encoding="utf-8"?>
<!-- Generator: Adobe Illustrator 19.0.0, SVG Export Plug-In . SVG Version: 6.00 Build 0)  -->
<svg version="1.1" id="Layer_1" xmlns="http://www.w3.org/2000/svg" xmlns:xlink="http://www.w3.org/1999/xlink" x="0px" y="0px"
	 viewBox="0 0 121.2 112.8" style="enable-background:new 0 0 121.2 112.8;" xml:space="preserve">
<style type="text/css">
	.st0{fill:#FFFFFF;}
	.st1{fill:#231F20;}
	.st2{fill:#F9DC31;}
	.st3{fill:#EF422C;}
</style>
<g id="_x34__1_">
	<g>
		<g id="_x33_">
			<path class="st0" d="M53.5,76.1c-0.1,0-0.4,0.3-0.9,0.6C52,77,51,77.5,49.8,77.8c-1.2,0.4-2.6,0.6-4.2,0.6
				c-1.6,0-3.3-0.3-4.9-0.8c-0.8-0.3-1.6-0.7-2.3-1.1C37.6,76,37,75.5,36.4,75c-1.2-1-2-2.1-2.6-3.1c-0.6-1-0.9-1.9-1.1-2.6
				c-0.2-0.7-0.2-1-0.2-1s0,0.4,0,1c0,0.7,0.1,1.7,0.4,2.9c0.3,1.2,1,2.6,2.1,4c1.1,1.4,2.7,2.6,4.8,3.4c2,0.8,4.2,0.9,6,0.6
				c1.8-0.2,3.4-0.9,4.5-1.5c1.1-0.7,2-1.4,2.5-1.9C53.2,76.4,53.4,76.1,53.5,76.1z M57,30.9c0,0,0.1-0.1,0.3-0.1
				c0.2-0.1,0.5-0.3,0.9-0.4c0.8-0.4,1.9-0.8,3.3-1.1c1.4-0.4,3.2-0.6,5.2-0.5c1.9,0.1,4,0.5,6.1,1.3c2,0.8,3.8,1.9,5.2,3.1
				c1.4,1.2,2.5,2.5,3.2,3.7c0.8,1.2,1.2,2.2,1.5,3c0,0.1,0.1,0.2,0.1,0.4c-1-0.2-1.9-0.3-2.8-0.3c-1.2,0-2.2,0.1-3.2,0.3
				c-1,0.2-1.9,0.5-2.7,0.8c-1.6,0.7-2.7,1.4-3.3,2c-0.4,0.3-0.6,0.5-0.8,0.7c-0.1,0.1-0.2,0.2-0.2,0.2c0,0,0.1-0.1,0.3-0.2
				c0.2-0.1,0.5-0.3,0.9-0.5c0.4-0.2,0.9-0.5,1.5-0.7c0.6-0.2,1.3-0.4,2-0.6c1.5-0.3,3.4-0.5,5.4-0.2c1,0.2,2,0.3,3,0.7
				c1,0.4,2,0.8,2.9,1.4c0.9,0.6,1.7,1.3,2.4,2c0.7,0.7,1.3,1.6,1.8,2.4c1,1.6,1.5,3.3,1.7,4.7c0.2,1.4,0.2,2.7,0,3.5
				c0,0.4-0.1,0.7-0.2,1c0,0.2-0.1,0.3-0.1,0.3c0,0,0.1-0.1,0.1-0.3c0.1-0.2,0.3-0.5,0.4-0.9c0.2-0.4,0.4-0.9,0.5-1.5
				c0.2-0.6,0.3-1.3,0.3-2.1c0.1-0.8,0-1.7-0.1-2.6c-0.2-0.9-0.4-1.9-0.9-2.9c-0.4-1-1-2-1.8-2.9c-0.8-0.9-1.8-1.8-2.9-2.5
				c-1.2-0.7-2.4-1.2-3.6-1.5c-0.2-0.1-0.4-0.1-0.6-0.1c0,0,0,0,0-0.1c0-0.1,0-0.2,0-0.4c-0.1-0.8-0.4-1.9-1-3.3
				c-0.6-1.3-1.5-2.9-2.9-4.4c-1.4-1.4-3.3-2.8-5.6-3.7c-2.3-0.9-4.7-1.1-6.8-1c-2.1,0.1-3.9,0.6-5.4,1.1c-1.4,0.5-2.5,1.1-3.2,1.6
				c-0.4,0.2-0.6,0.4-0.8,0.6C57.2,30.9,57.1,30.9,57,30.9z M30.6,48.5c1.3-0.3,2.4-0.3,3.1-0.3c0.4,0,0.7,0.1,0.9,0.1
				c0.2,0,0.3,0,0.3,0s-0.1,0-0.3-0.1c-0.2-0.1-0.5-0.2-0.8-0.3c-0.7-0.2-1.8-0.4-3.3-0.3c-1.4,0-3.1,0.4-4.8,1.2
				c-1.7,0.9-3.3,2.3-4.3,4.2c-0.5,1-0.7,2-0.8,3c-0.1,1,0,1.9,0.2,2.8c0.4,1.7,1.3,3.2,2.2,4.2c0.5,0.5,0.9,0.9,1.4,1.2
				c0.4,0.3,0.8,0.6,1.2,0.7c0.3,0.2,0.6,0.3,0.8,0.4c0.1,0.1,0.2,0.1,0.3,0.1c0,0-0.1-0.1-0.2-0.2c-0.1-0.1-0.4-0.3-0.6-0.5
				c-0.5-0.5-1.2-1.3-1.8-2.3c-0.6-1-1.1-2.4-1.3-3.9c-0.1-0.8-0.1-1.5,0-2.3c0.1-0.8,0.3-1.6,0.7-2.4c0.4-0.8,0.8-1.5,1.4-2.1
				c0.5-0.6,1.2-1.1,1.8-1.6C27.9,49.3,29.3,48.8,30.6,48.5z M49.2,93.8c-0.9-0.1-1.7-0.2-2.6-0.4c-0.4-0.1-0.8-0.2-1.3-0.3
				c-0.4-0.1-0.8-0.2-1.2-0.4c-0.4-0.1-0.8-0.3-1.2-0.5c-0.4-0.2-0.8-0.4-1.2-0.6c-0.8-0.4-1.5-0.9-2.2-1.3c-0.7-0.5-1.4-1-2-1.6
				c-0.6-0.6-1.2-1.2-1.8-1.9c-0.5-0.7-1-1.4-1.5-2.1L34,84.3l-0.6,0.1h0c-1,0.2-1.9,0.4-2.8,0.4c-0.9,0.1-1.9,0-2.8-0.1
				c-0.5,0-0.9-0.2-1.3-0.2c-0.4-0.1-0.9-0.2-1.3-0.4c-0.8-0.3-1.7-0.7-2.4-1.1c-0.7-0.5-1.5-1-2.1-1.6c-0.3-0.3-0.6-0.6-0.9-0.9
				c-0.3-0.3-0.5-0.7-0.8-1c-0.2-0.4-0.5-0.7-0.7-1.1c-0.2-0.4-0.4-0.8-0.6-1.2c-0.2-0.4-0.3-0.8-0.5-1.2c-0.1-0.4-0.2-0.9-0.4-1.3
				L16.7,74L16.2,74h0l-1.3-0.2l-1.2-0.3l-1.2-0.4l-1.1-0.5l-1.1-0.5l-1-0.6l-1-0.7l-0.9-0.8c-0.6-0.6-1.1-1.2-1.5-1.8
				c-0.4-0.7-0.8-1.3-1.1-2c-0.3-0.7-0.5-1.4-0.7-2.1c0-0.4-0.1-0.7-0.2-1.1l0-1.2l0.1-1.1L4,59.6l0.3-1.1l0.4-1.1l0.5-1l0.6-1
				l0.7-0.9c0.3-0.3,0.5-0.6,0.8-0.9c0.6-0.5,1.2-1,1.9-1.5c0.7-0.4,1.4-0.8,2.2-1.2c0.8-0.3,1.6-0.6,2.4-0.8
				c0.4-0.1,0.8-0.2,1.2-0.2c0.4,0,0.9-0.1,1.3-0.1l0.6,0l0.1-0.6v0l0.3-1.3c0.1-0.4,0.2-0.9,0.4-1.3c0.2-0.4,0.3-0.9,0.5-1.2
				c0.2-0.4,0.4-0.8,0.6-1.2c0.2-0.4,0.5-0.8,0.7-1.1c0.2-0.4,0.5-0.7,0.8-1c0.3-0.4,0.6-0.6,0.9-1c0.3-0.3,0.7-0.6,1-0.9
				c0.3-0.3,0.8-0.5,1.1-0.8c0.4-0.2,0.8-0.5,1.2-0.7c0.4-0.2,0.8-0.4,1.3-0.6c0.4-0.2,0.9-0.4,1.3-0.5c0.4-0.1,0.9-0.3,1.3-0.4
				l0.7-0.2c0.2,0,0.5-0.1,0.8-0.1c0.2,0,0.6-0.1,0.7-0.1l0.7,0c0.5,0,1-0.1,1.5-0.1l0.6-0.1l0.2-0.4l0,0c0.4-1,0.8-2,1.3-2.9
				c0.4-1,1-1.9,1.6-2.8l0.9-1.3c0.3-0.4,0.7-0.8,1-1.2c0.3-0.4,0.7-0.8,1.1-1.2c0.4-0.4,0.7-0.8,1.2-1.1c0.8-0.7,1.7-1.4,2.5-2
				c0.9-0.6,1.8-1.2,2.8-1.7c0.9-0.6,2-1,3-1.4c1-0.4,2.1-0.8,3.2-1c0.5-0.2,1.1-0.3,1.6-0.4c0.5-0.1,1.1-0.2,1.6-0.3l1.6-0.2
				l1.7-0.1c1.1-0.1,2.2,0,3.3,0.1c1.1,0.1,2.2,0.3,3.3,0.5c2.2,0.5,4.3,1.1,6.3,2c2,0.9,3.9,2.1,5.7,3.4L78,25l0.4-0.3l0,0
				c2.5-1,5.1-1.6,7.7-1.6c0.7,0,1.3,0,2,0.1c0.7,0,1.3,0.2,1.9,0.3c0.6,0.2,1.3,0.3,1.9,0.5c0.6,0.2,1.2,0.4,1.8,0.6
				c0.6,0.3,1.2,0.5,1.7,0.8c0.6,0.3,1.1,0.6,1.6,1c0.6,0.3,1,0.8,1.5,1.1c0.5,0.4,0.9,0.8,1.4,1.3c0.4,0.4,0.8,0.9,1.2,1.4
				c0.4,0.5,0.7,1,1.1,1.6c0.3,0.5,0.6,1.1,0.9,1.6c0.3,0.6,0.5,1.2,0.7,1.7l0.3,0.8l0.6-0.4l0,0c1.4-0.5,2.9-0.8,4.4-0.6
				c0.7,0,1.5,0.2,2.2,0.4c0.7,0.2,1.3,0.5,1.9,0.9c0.6,0.4,1.1,0.8,1.6,1.3c0.5,0.5,0.9,1,1.2,1.6c0.3,0.6,0.6,1.2,0.8,1.8
				c0.1,0.3,0.1,0.6,0.2,0.9c0.1,0.3,0,0.7,0.1,1c0,0.6-0.1,1.1-0.2,1.6c-0.1,0.3-0.1,0.6-0.2,0.8c-0.1,0.3-0.2,0.5-0.3,0.8
				c-0.2,0.5-0.5,1-0.9,1.4c-0.2,0.2-0.4,0.4-0.6,0.7c-0.2,0.2-0.4,0.4-0.6,0.6c-0.5,0.4-0.9,0.7-1.5,1c-0.3,0.1-0.5,0.3-0.8,0.4
				c-0.3,0.1-0.6,0.2-0.9,0.3c-0.3,0.1-0.6,0.2-0.9,0.2l-0.4,0.1l-0.5,0.1l-0.5,0.1h-0.5l-1,0l-1.3,0l0.6,1l0,0.1
				c0.9,1.3,1.6,2.7,2,4.2c0.2,0.7,0.3,1.5,0.4,2.2c0,0.4,0.1,0.7,0.1,1.1v0.6l0,0.5c0,0.7-0.2,1.5-0.3,2.2
				c-0.2,0.7-0.4,1.4-0.7,2.1c-0.1,0.4-0.3,0.7-0.5,1c-0.2,0.3-0.4,0.7-0.6,1c-0.4,0.6-0.9,1.2-1.4,1.8l-0.8,0.8l-0.9,0.7
				c-0.6,0.5-1.2,0.9-1.9,1.3c-0.7,0.4-1.4,0.7-2.1,1c-0.4,0.1-0.7,0.3-1.1,0.4l-1.2,0.3c-0.8,0.1-1.5,0.3-2.4,0.4l-0.6,0.1
				c-0.1,0-0.4,0-0.6,0c-0.4,0-0.8,0-1.2,0c-0.8-0.1-1.6-0.2-2.4-0.3c-0.8-0.2-1.6-0.4-2.4-0.7l-0.2-0.1l-0.1,0h-0.1l-0.7,0l-0.6,0
				l-0.1,0.6l0,0.1c-0.1,0.5-0.1,0.9-0.2,1.3c-0.1,0.4-0.2,0.9-0.4,1.3c-0.3,0.8-0.7,1.7-1.2,2.4c-0.5,0.7-1.1,1.4-1.8,2.1
				c-0.7,0.6-1.4,1.2-2.2,1.6c-0.4,0.2-0.8,0.4-1.2,0.6c-0.4,0.2-0.9,0.3-1.3,0.5c-0.4,0.1-0.9,0.3-1.4,0.3l-0.7,0.1l-0.8,0.1
				l-0.4,0c0,0-0.1,0-0.1,0h-0.2c-0.2,0-0.5,0-0.7,0c-0.5,0-1-0.1-1.4-0.1c-1-0.1-1.9-0.4-2.8-0.7l-0.6-0.2l-0.3,0.6l0,0.1
				c-0.4,0.8-0.8,1.5-1.3,2.2l-0.8,1l-0.8,1c-0.6,0.6-1.2,1.2-1.8,1.8c-0.7,0.5-1.3,1.1-2.1,1.5c-1.4,0.9-3,1.7-4.7,2.2
				c-0.8,0.2-1.7,0.5-2.5,0.6c-0.4,0.1-0.8,0.1-1.3,0.2l-0.6,0.1l-0.7,0l-0.7,0l-0.6,0C50.1,93.9,49.6,93.9,49.2,93.8z"/>
			<path class="st1" d="M104.2,87.8c-4.1-2.5-8.1-5.1-12.1-7.7c-0.2-0.1-0.1-0.4,0.2-0.4c4.1,1.5,7.7,3.6,11.5,5.7
				c3.4,1.9,7.1,3.1,10.4,5c0.5,0.3,0.3,1-0.3,1C110.3,91.4,107,89.6,104.2,87.8z"/>
			<path class="st1" d="M95.8,88c-2-2.1-4.1-4.2-6.1-6.4c-0.1-0.1,0.1-0.3,0.2-0.2c2.3,1.9,4.5,3.9,6.8,5.8c2,1.7,4.4,3.5,5.7,5.7
				c0.2,0.4-0.2,0.8-0.6,0.6C99.4,92.2,97.6,89.9,95.8,88z"/>
			<path class="st1" d="M90.3,84.8c0-0.1,0.1-0.1,0.1-0.1c1.5,2.7,3.6,5,5.3,7.5c1.4,2,3.1,4.1,3.3,6.4c0.1,0.5-0.6,0.6-0.9,0.3
				c-1.9-1.4-2.8-3.7-3.8-5.7C93,90.5,92,87.5,90.3,84.8z"/>
			<path class="st1" d="M81.7,13.7c0.8-1.6,1.5-3.4,2.8-4.7c0.3-0.3,0.8,0,0.7,0.4c-0.3,1.6-1.4,3.1-2.2,4.6c-0.9,1.7-1.8,3.3-3,4.9
				c-0.1,0.2-0.5,0.1-0.4-0.2C80.1,16.9,80.9,15.3,81.7,13.7z"/>
			<path class="st1" d="M80.1,10c-0.8,3.1-1.3,6.4-2.4,9.4c0,0.1-0.3,0.1-0.3,0c0.2-3,0.9-6,1.4-9c0.5-3,0.6-6.2,1.9-9
				c0.3-0.5,1.1-0.2,1.1,0.3C82,4.5,80.8,7.2,80.1,10z"/>
			<path class="st1" d="M73.7,4.6c1,1.9,0.8,4.3,1,6.4c0.2,2.6,0.3,5.1,0.2,7.7c0,0.2-0.3,0.2-0.3,0c-0.7-2.3-1-4.6-1.2-7
				C73,9.6,72.4,7,72.8,4.7C72.9,4.4,73.5,4.3,73.7,4.6z"/>
			<path class="st1" d="M70.9,43.3c-0.4,0.2-0.7,0.4-0.9,0.5c-0.2,0.1-0.3,0.2-0.3,0.2c0,0,0.1-0.1,0.2-0.2c0.2-0.1,0.4-0.4,0.8-0.7
				c0.7-0.6,1.8-1.3,3.3-2c0.8-0.3,1.7-0.6,2.7-0.8c1-0.2,2.1-0.3,3.2-0.3c0.9,0,1.9,0.1,2.8,0.3l0.2,0c0,0,0,0,0,0.1
				c0.2,0,0.4,0.1,0.6,0.1c1.2,0.3,2.5,0.8,3.6,1.5c1.1,0.7,2.1,1.6,2.9,2.5c0.8,0.9,1.4,1.9,1.8,2.9c0.5,1,0.7,2,0.9,2.9
				C93,51.3,93,52.2,93,53c0,0.8-0.2,1.5-0.3,2.1c-0.1,0.6-0.3,1.1-0.5,1.5c-0.2,0.4-0.3,0.7-0.4,0.9c-0.1,0.1-0.1,0.3-0.1,0.3
				c0,0,0-0.1,0.1-0.3c0-0.2,0.1-0.5,0.2-1c0.1-0.8,0.2-2.1,0-3.5c-0.2-1.4-0.8-3.1-1.7-4.7c-0.5-0.8-1.1-1.6-1.8-2.4
				c-0.7-0.8-1.5-1.4-2.4-2c-0.9-0.6-1.9-1-2.9-1.4c-1-0.4-2-0.6-3-0.7c-2-0.3-3.9-0.1-5.4,0.2c-0.8,0.2-1.5,0.4-2,0.6
				C71.7,42.8,71.3,43.1,70.9,43.3z"/>
			<path class="st1" d="M58.1,30.2c0.7-0.5,1.8-1.1,3.2-1.6c1.4-0.5,3.3-1,5.4-1.1c2.1-0.1,4.5,0.1,6.8,1c2.3,0.9,4.2,2.2,5.6,3.7
				c1.4,1.5,2.3,3,2.9,4.4c0.6,1.4,0.8,2.5,1,3.3c0,0.1,0,0.3,0,0.4l-0.2,0c0-0.1-0.1-0.2-0.1-0.4c-0.3-0.7-0.8-1.8-1.5-3
				c-0.8-1.2-1.9-2.5-3.2-3.7c-1.4-1.2-3.2-2.4-5.2-3.1c-2-0.8-4.1-1.2-6.1-1.3c-2-0.1-3.7,0.1-5.2,0.5c-1.4,0.3-2.6,0.8-3.3,1.1
				c-0.4,0.2-0.7,0.3-0.9,0.4c-0.1,0.1-0.2,0.1-0.3,0.1c0,0,0.1-0.1,0.3-0.2C57.5,30.6,57.7,30.4,58.1,30.2z"/>
			<path class="st1" d="M52.7,76.9c-0.5,0.5-1.3,1.2-2.5,1.9c-1.2,0.7-2.7,1.3-4.5,1.5c-1.8,0.3-4,0.2-6-0.6c-2-0.8-3.7-2.1-4.8-3.4
				c-1.1-1.4-1.8-2.8-2.1-4c-0.3-1.2-0.4-2.2-0.4-2.9c0-0.7,0-1,0-1s0,0.4,0.2,1c0.1,0.7,0.5,1.6,1.1,2.6c0.6,1,1.5,2.1,2.6,3.1
				c0.6,0.5,1.2,1,1.9,1.4c0.7,0.4,1.5,0.8,2.3,1.1c1.7,0.5,3.3,0.9,4.9,0.8c1.6,0,3-0.2,4.2-0.6c1.2-0.3,2.1-0.8,2.7-1.1
				c0.5-0.3,0.8-0.5,0.9-0.6C53.4,76.1,53.2,76.4,52.7,76.9z"/>
			<path class="st1" d="M25.5,111.3c1.3-6.4,3.7-12.4,6.4-18.3c0,0,0,0,0,0c-1.4,6.3-3,12.6-5.7,18.5
				C26,111.9,25.4,111.7,25.5,111.3z"/>
			<path class="st1" d="M25.7,64.8c0.3,0.3,0.5,0.4,0.6,0.5c0.1,0.1,0.2,0.1,0.2,0.2c0,0-0.1-0.1-0.3-0.1c-0.2-0.1-0.5-0.2-0.8-0.4
				c-0.3-0.2-0.7-0.4-1.2-0.7c-0.4-0.3-0.9-0.7-1.4-1.2c-0.9-1-1.8-2.4-2.2-4.2c-0.2-0.9-0.3-1.8-0.2-2.8c0.1-1,0.3-2,0.8-3
				c1-1.9,2.6-3.4,4.3-4.2c1.7-0.8,3.4-1.2,4.8-1.2c1.4,0,2.5,0.1,3.3,0.3c0.4,0.1,0.6,0.2,0.8,0.3c0.2,0.1,0.3,0.1,0.3,0.1
				s-0.1,0-0.3,0c-0.2,0-0.5-0.1-0.9-0.1c-0.7-0.1-1.8-0.1-3.1,0.3c-1.2,0.3-2.7,0.9-4,1.8c-0.6,0.5-1.3,1-1.8,1.6
				c-0.6,0.6-1,1.3-1.4,2.1c-0.3,0.8-0.6,1.6-0.7,2.4c-0.1,0.8-0.1,1.6,0,2.3c0.2,1.5,0.7,2.8,1.3,3.9
				C24.5,63.6,25.2,64.3,25.7,64.8z"/>
			<path class="st1" d="M24,97.7c-1.6,1.9-3.3,4.5-5.7,5.6c-0.3,0.1-0.7-0.1-0.6-0.4c0.8-2.2,3-3.8,4.7-5.4c2.2-2,4.3-4,6.5-6
				c0.1-0.1,0.2,0,0.2,0.1C27.5,93.7,25.7,95.7,24,97.7z"/>
			<path class="st1" d="M25.2,93.1c-4.6,3.1-9.1,6.8-14.4,9c-0.4,0.2-0.9-0.3-0.5-0.6c4.3-3.6,9.8-5.9,14.8-8.5
				C25.2,93,25.3,93.1,25.2,93.1z"/>
			<path class="st1" d="M10.2,72.2l1.1,0.5l1.1,0.5L10.2,72.2l4.7,1.6l1.3,0.2h0l0.5,0.1l0.2,0.6c0.1,0.5,0.2,0.9,0.4,1.3
				c0.2,0.4,0.3,0.9,0.5,1.2c0.1,0.4,0.4,0.8,0.6,1.2c0.2,0.4,0.4,0.7,0.7,1.1c0.3,0.3,0.5,0.7,0.8,1c0.3,0.3,0.6,0.6,0.9,0.9
				c0.6,0.6,1.3,1.1,2.1,1.6c0.7,0.5,1.6,0.8,2.4,1.1c0.4,0.2,0.9,0.3,1.3,0.4c0.4,0.1,0.9,0.2,1.3,0.2c0.9,0.1,1.8,0.2,2.8,0.1
				c0.9,0,1.9-0.2,2.8-0.4h0l0.6-0.1l0.3,0.5c0.5,0.7,1,1.4,1.5,2.1c0.5,0.7,1.1,1.3,1.8,1.9c0.6,0.6,1.3,1.1,2,1.6
				c0.7,0.5,1.4,0.9,2.2,1.3c0.4,0.2,0.8,0.4,1.2,0.6c0.4,0.2,0.8,0.4,1.2,0.5c0.4,0.2,0.8,0.3,1.2,0.4c0.4,0.1,0.8,0.2,1.3,0.3
				c0.8,0.2,1.7,0.3,2.6,0.4c0.4,0.1,0.9,0.1,1.3,0.1l0.6,0l0.7,0l0.7,0l0.6-0.1c0.4,0,0.8-0.1,1.3-0.2c0.8-0.1,1.7-0.4,2.5-0.6
				c1.7-0.5,3.2-1.2,4.7-2.2c0.7-0.5,1.4-1,2.1-1.5c0.7-0.6,1.3-1.1,1.8-1.8l0.8-1l0.8-1c0.5-0.7,0.9-1.4,1.3-2.2l0-0.1l0.3-0.6
				l0.6,0.2c0.9,0.3,1.9,0.6,2.8,0.7c0.5,0.1,1,0.1,1.4,0.1c0.2,0,0.5,0,0.7,0h0.2c0,0,0.1,0,0.1,0l0.4,0l0.8-0.1l0.7-0.1
				c0.4-0.1,0.9-0.2,1.4-0.3c0.4-0.2,0.9-0.3,1.3-0.5c0.4-0.2,0.8-0.4,1.2-0.6c0.8-0.4,1.5-1,2.2-1.6c0.7-0.6,1.3-1.3,1.8-2.1
				c0.5-0.8,0.9-1.6,1.2-2.4c0.2-0.4,0.3-0.9,0.4-1.3c0.1-0.4,0.1-0.9,0.2-1.3l0-0.1l0.1-0.6l0.6,0l0.7,0h0.1l0.1,0l0.2,0.1
				c0.8,0.3,1.6,0.5,2.4,0.7c0.8,0.2,1.6,0.3,2.4,0.3c0.4,0,0.8,0,1.2,0c0.2,0,0.4,0,0.6,0l0.6-0.1c0.9,0,1.6-0.2,2.4-0.4l1.2-0.3
				c0.4-0.1,0.7-0.3,1.1-0.4c0.7-0.3,1.5-0.6,2.1-1c0.7-0.4,1.3-0.8,1.9-1.3l0.9-0.7l0.8-0.8c0.5-0.6,1-1.2,1.4-1.8
				c0.2-0.3,0.4-0.6,0.6-1c0.2-0.3,0.4-0.7,0.5-1c0.3-0.7,0.5-1.4,0.7-2.1c0.1-0.7,0.3-1.5,0.3-2.2l0-0.5v-0.6c0-0.4,0-0.7-0.1-1.1
				c-0.1-0.8-0.2-1.5-0.4-2.2c-0.4-1.5-1.1-2.9-2-4.2l0-0.1l-0.6-1l1.3,0l1,0h0.5l0.5-0.1l0.5-0.1l0.4-0.1c0.3,0,0.6-0.1,0.9-0.2
				c0.3-0.1,0.6-0.2,0.9-0.3c0.3-0.1,0.6-0.3,0.8-0.4c0.5-0.3,1-0.6,1.5-1c0.2-0.2,0.4-0.4,0.6-0.6c0.2-0.2,0.4-0.4,0.6-0.7
				c0.4-0.5,0.7-0.9,0.9-1.4c0.1-0.3,0.2-0.5,0.3-0.8c0.1-0.3,0.2-0.5,0.2-0.8c0.1-0.5,0.2-1.1,0.2-1.6c0-0.3,0-0.8-0.1-1
				c0-0.3-0.1-0.6-0.2-0.9c-0.2-0.6-0.4-1.2-0.8-1.8c-0.3-0.6-0.8-1.1-1.2-1.6c-0.5-0.5-1-0.9-1.6-1.3c-0.6-0.4-1.3-0.7-1.9-0.9
				c-0.7-0.2-1.4-0.4-2.2-0.4c-1.5-0.2-3,0.1-4.4,0.6l0,0l-0.6,0.4l-0.3-0.8c-0.3-0.6-0.4-1.2-0.7-1.7c-0.2-0.6-0.6-1.1-0.9-1.6
				c-0.3-0.5-0.7-1-1.1-1.6c-0.4-0.5-0.8-1-1.2-1.4c-0.4-0.5-0.9-0.9-1.4-1.3c-0.5-0.4-1-0.8-1.5-1.1c-0.5-0.4-1.1-0.7-1.6-1
				c-0.6-0.3-1.1-0.6-1.7-0.8c-0.6-0.2-1.2-0.5-1.8-0.6c-0.6-0.2-1.3-0.3-1.9-0.5c-0.6-0.1-1.3-0.2-1.9-0.3c-0.6,0-1.3-0.1-2-0.1
				c-2.6,0-5.3,0.6-7.7,1.6l0,0L78,25l-0.4-0.3c-1.8-1.3-3.7-2.5-5.7-3.4c-2-0.9-4.2-1.6-6.3-2c-1.1-0.2-2.2-0.4-3.3-0.5
				c-1.1-0.1-2.2-0.1-3.3-0.1l-1.7,0.1L55.5,19c-0.5,0-1.1,0.2-1.6,0.3c-0.5,0.1-1.1,0.2-1.6,0.4c-1.1,0.3-2.1,0.6-3.2,1
				c-1,0.4-2,0.8-3,1.4c-1,0.5-1.9,1.1-2.8,1.7c-0.9,0.6-1.8,1.3-2.5,2c-0.4,0.3-0.8,0.7-1.2,1.1c-0.4,0.4-0.8,0.8-1.1,1.2
				c-0.3,0.4-0.7,0.8-1,1.2l-0.9,1.3c-0.6,0.9-1.2,1.8-1.6,2.8c-0.5,1-0.9,1.9-1.3,2.9l0,0l-0.2,0.4l-0.6,0.1c-0.5,0-1,0.1-1.5,0.1
				l-0.7,0c-0.2,0-0.5,0.1-0.7,0.1c-0.3,0-0.5,0.1-0.8,0.1l-0.7,0.2c-0.4,0.1-0.9,0.2-1.3,0.4c-0.5,0.1-0.9,0.3-1.3,0.5
				c-0.4,0.2-0.8,0.4-1.3,0.6c-0.4,0.2-0.8,0.5-1.2,0.7c-0.4,0.3-0.8,0.5-1.1,0.8c-0.3,0.3-0.7,0.6-1,0.9c-0.3,0.3-0.7,0.6-0.9,1
				c-0.3,0.3-0.6,0.7-0.8,1c-0.3,0.4-0.5,0.7-0.7,1.1c-0.3,0.4-0.4,0.8-0.6,1.2c-0.2,0.4-0.3,0.8-0.5,1.2c-0.2,0.4-0.2,0.9-0.4,1.3
				L17,49.2v0l-0.1,0.6l-0.6,0c-0.4,0-0.9,0.1-1.3,0.1c-0.4,0.1-0.8,0.2-1.2,0.2c-0.8,0.2-1.6,0.5-2.4,0.8c-0.8,0.3-1.5,0.7-2.2,1.2
				c-0.7,0.5-1.3,0.9-1.9,1.5c-0.3,0.3-0.5,0.6-0.8,0.9l-0.7,0.9l-0.6,1l-0.5,1l-0.4,1.1L4,59.6l-0.2,1.1l-0.1,1.1l0,1.2
				c0,0.4,0.1,0.7,0.2,1.1c0.1,0.7,0.4,1.4,0.7,2.1c0.3,0.7,0.7,1.4,1.1,2c0.4,0.6,0.9,1.2,1.5,1.8l0.9,0.8l1,0.7L10.2,72.2z
				 M11.9,74.9l-1.4-0.4L9.1,74l-1.3-0.7l-1.2-0.8l-1.1-0.9c-0.3-0.3-0.7-0.6-1-1c-0.3-0.4-0.6-0.7-0.9-1.1c-0.6-0.8-1-1.6-1.4-2.4
				c-0.4-0.8-0.7-1.7-0.9-2.6c-0.1-0.5-0.2-1-0.2-1.4c0-0.4-0.1-0.8-0.1-1.3l0.1-1.4l0.2-1.4l0.4-1.3l0.5-1.3L3,55.3l0.8-1.1
				c0.3-0.4,0.6-0.7,0.9-1.1c0.3-0.3,0.7-0.7,1-1c0.7-0.6,1.5-1.2,2.3-1.6c0.8-0.5,1.7-0.9,2.6-1.1c0.9-0.3,1.9-0.5,2.8-0.6
				c0.5,0,1-0.1,1.5-0.1c0.2,0,0.4,0,0.6,0c0-0.3,0-0.6,0-0.9c0-0.5,0-1,0.1-1.5c0.1-0.5,0.2-1,0.3-1.5c0.2-0.5,0.3-1,0.5-1.5
				c0.4-1,1-1.9,1.6-2.7c0.3-0.4,0.7-0.8,1.1-1.2c0.4-0.4,0.8-0.7,1.2-1.1c0.4-0.3,0.9-0.7,1.4-1c0.5-0.3,1-0.6,1.5-0.8
				c0.5-0.2,1-0.5,1.6-0.6c0.5-0.1,1.1-0.4,1.6-0.4c0.6-0.1,1.1-0.2,1.7-0.3c0.6-0.1,1.2-0.1,1.7,0l0.8,0l0.8,0.1
				c0.3,0.1,0.7,0.1,1,0.2c0.3-0.9,0.5-1.8,0.9-2.6c0.4-1.1,1-2,1.5-3l0.9-1.5c0.3-0.5,0.7-0.9,1-1.4c0.3-0.5,0.7-0.9,1.1-1.3
				c0.4-0.4,0.8-0.9,1.2-1.2c0.8-0.8,1.7-1.6,2.7-2.3c1-0.7,1.9-1.4,3-1.9c1-0.6,2.1-1.1,3.2-1.6c1.1-0.4,2.3-0.8,3.4-1.1
				c0.6-0.2,1.2-0.3,1.8-0.4c0.6-0.1,1.2-0.3,1.8-0.3l1.9-0.2c0.6,0,1.2,0,1.8-0.1c1.3-0.1,2.5,0,3.7,0.1c1.2,0.1,2.4,0.3,3.6,0.6
				c2.4,0.6,4.6,1.4,6.7,2.5c2,1,3.7,2.3,5.3,3.7c2.3-1.4,5-2.3,7.9-2.5c0.7-0.1,1.5-0.1,2.2,0c0.8,0,1.5,0.1,2.2,0.2
				c0.7,0.1,1.5,0.3,2.2,0.5c0.7,0.2,1.4,0.4,2.1,0.7c0.7,0.3,1.4,0.6,2,1c0.6,0.4,1.3,0.8,1.9,1.2c0.6,0.4,1.1,0.9,1.7,1.4
				c0.5,0.5,1,1,1.5,1.6c0.5,0.6,0.9,1.1,1.2,1.7c0.3,0.6,0.7,1.2,1,1.9c0.3,0.6,0.5,1.3,0.7,2c0.1,0.4,0.2,0.8,0.3,1.1
				c1.3-0.6,2.8-0.9,4.3-1c0.9,0,1.8,0.1,2.7,0.3c0.9,0.2,1.8,0.5,2.6,1c0.8,0.4,1.6,1,2.2,1.5c0.7,0.6,1.2,1.3,1.7,2
				c0.5,0.8,0.8,1.6,1.1,2.4c0.1,0.4,0.2,0.9,0.3,1.3c0.1,0.5,0.1,0.8,0.1,1.2v0.1c0,0.7-0.1,1.5-0.3,2.2c-0.1,0.4-0.2,0.7-0.3,1.1
				c-0.1,0.3-0.3,0.7-0.5,1c-0.3,0.7-0.8,1.3-1.3,1.8c-0.2,0.3-0.5,0.6-0.8,0.8c-0.3,0.3-0.6,0.5-0.9,0.7c-0.6,0.4-1.3,0.8-2,1.1
				c-0.4,0.1-0.7,0.3-1.1,0.4c-0.4,0.1-0.7,0.2-1.1,0.3c-0.4,0.1-0.8,0.1-1.2,0.2c-0.4,0-0.8,0.1-1.1,0l-0.6,0l0,0
				c0.7,1,1.3,2.1,1.7,3.2c0.3,0.8,0.5,1.6,0.7,2.5c0.1,0.4,0.1,0.8,0.1,1.3l0,0.6l0,0.7c0,0.8-0.1,1.7-0.3,2.5
				c-0.2,0.8-0.4,1.7-0.8,2.5c-0.1,0.4-0.3,0.8-0.6,1.2c-0.2,0.4-0.4,0.8-0.6,1.1c-0.5,0.8-1,1.4-1.6,2.1l-0.9,1l-1,0.9
				c-0.7,0.6-1.5,1.1-2.3,1.5c-0.8,0.5-1.7,0.8-2.5,1.1c-0.4,0.1-0.9,0.3-1.3,0.4l-1.4,0.3c-0.9,0.2-2,0.3-2.8,0.3h-0.6
				c-0.3,0-0.5,0-0.7,0c-0.5,0-0.9-0.1-1.4-0.1c-1.7-0.3-3.4-0.8-4.9-1.6c0,0.3,0,0.6,0,0.9c0,0.5-0.1,1-0.2,1.5
				c-0.2,1-0.6,2-1.1,2.9c-0.5,0.9-1.2,1.8-2,2.6c-0.8,0.8-1.7,1.4-2.6,2c-0.5,0.3-1,0.5-1.5,0.7c-0.5,0.2-1.1,0.4-1.6,0.6
				c-0.6,0.1-1.1,0.3-1.7,0.3L76,85.7c-0.3,0-0.5,0-0.8,0h-0.4h-0.3l-0.2,0c-0.3,0-0.6,0-0.8-0.1c-0.6-0.1-1.1-0.2-1.7-0.3
				c-0.8-0.2-1.6-0.5-2.3-0.9l-0.2,0.7l-0.6,1.3l-0.7,1.2l-0.8,1.2c-0.6,0.8-1.2,1.5-1.9,2.2c-0.7,0.7-1.4,1.3-2.2,1.9
				c-1.6,1.2-3.4,2.1-5.3,2.8C57,96,56,96.3,55,96.4c-0.5,0.1-1,0.2-1.5,0.2l-0.8,0.1l-0.7,0l-0.7,0c-0.4,0-0.5,0-0.8,0
				c-0.5,0-1,0-1.5-0.1c-1-0.1-2-0.3-3-0.5c-0.5-0.1-1-0.3-1.5-0.4c-0.5-0.2-0.9-0.3-1.4-0.5c-0.9-0.4-1.8-0.8-2.7-1.4
				c-1.7-1-3.2-2.3-4.4-3.8c-0.6-0.7-1.1-1.5-1.6-2.3c-0.2-0.4-0.4-0.8-0.7-1.2l-0.3-0.6c-0.8,0.4-1.6,0.7-2.4,1
				c-0.5,0.1-1.1,0.2-1.7,0.3c-0.6,0.1-1.1,0.1-1.7,0.1c-1.1,0-2.3-0.2-3.4-0.5C23,86.5,22,86,21,85.4c-0.5-0.3-0.9-0.6-1.4-1
				c-0.4-0.4-0.9-0.7-1.2-1.1c-0.4-0.4-0.7-0.8-1.1-1.3c-0.3-0.4-0.6-0.9-0.9-1.4c-0.2-0.5-0.5-1-0.6-1.5c-0.2-0.5-0.3-1-0.4-1.5
				c-0.1-0.5-0.1-1-0.1-1.5c0-0.3,0-0.6,0.1-0.9l-0.7,0l-1.4-0.1L11.9,74.9z"/>
		</g>
		<g>
			<path class="st2" d="M23.9,25.1c1.4,2.1,3,4.2,4.6,6.2c2.6-0.8,5.2-1.5,7.9-2.1c-1.7,1.5-3.6,3.5-5.3,5.6
				c1.2,1.8,2.1,3.6,2.6,5.4c-1.4-0.4-3.4-1.1-5.6-1.7c-1.4,1.8-2.7,3.4-3.6,4.3c-0.7-1.6-0.9-3.5-0.9-5.6c-2.6-0.7-5.2-1.3-7.4-1.6
				c2.5-1,5.1-1.9,7.6-2.8C23.8,30.3,24,27.6,23.9,25.1z"/>
			<path class="st1" d="M24.4,43.3C24.4,43.3,24.3,43.3,24.4,43.3c-0.2,0-0.4-0.1-0.4-0.3c-0.6-1.4-0.9-3.1-0.9-5.5
				c-2.8-0.8-5.2-1.2-7-1.5c-0.2,0-0.4-0.2-0.4-0.4c0-0.2,0.1-0.4,0.3-0.5c2.4-1,4.9-1.9,7.3-2.7l0-0.3c0.1-2.4,0.3-4.8,0.2-7.1
				c0-0.2,0.1-0.4,0.3-0.4c0.2-0.1,0.4,0,0.5,0.2c1.1,1.6,2.3,3.2,3.5,4.8c0.3,0.4,0.6,0.7,0.9,1.1c2.5-0.7,5-1.4,7.6-2
				c0.2,0,0.4,0,0.5,0.2c0.1,0.2,0.1,0.4-0.1,0.5c-1.4,1.3-3.1,3-5.1,5.3c1.3,2,2.1,3.6,2.5,5.2c0,0.2,0,0.3-0.1,0.4
				c-0.1,0.1-0.3,0.1-0.5,0.1c-0.6-0.2-1.3-0.4-2.2-0.7c-0.9-0.3-2-0.6-3.1-1c-1.4,1.7-2.6,3.2-3.5,4.1
				C24.7,43.2,24.5,43.3,24.4,43.3z M17.8,35.4c1.7,0.3,3.6,0.7,5.9,1.4c0.2,0.1,0.3,0.2,0.3,0.4c0,2,0.2,3.5,0.6,4.8
				c0.8-0.9,1.8-2.1,2.9-3.5l0.2-0.2c0.1-0.2,0.3-0.2,0.5-0.2c1.3,0.4,2.4,0.8,3.5,1.1c0.5,0.1,0.9,0.3,1.3,0.4
				c-0.5-1.4-1.2-2.8-2.3-4.5c-0.1-0.2-0.1-0.3,0-0.5c1.6-1.9,2.9-3.3,4.1-4.5c-2.1,0.5-4.1,1.1-6.1,1.7c-0.2,0.1-0.4,0-0.5-0.2
				c-0.3-0.5-0.7-0.9-1-1.4c-0.9-1.1-1.8-2.3-2.6-3.5c0,1.8-0.1,3.7-0.2,5.6l0,0.6c0,0.2-0.1,0.3-0.3,0.4
				C21.8,33.9,19.8,34.6,17.8,35.4z"/>
		</g>
	</g>
	<g>
		<g id="XMLID_213_">
			<g id="XMLID_240_">
				<path id="XMLID_245_" class="st1" d="M44.9,46.8c-1.4-2.8-4.5-6.2-11-5.1c-1.3,0.2-2.8,0.7-4.6,1.4c-0.3,0.1-0.5,0.1-0.9,0.2
					c-0.1,0-0.1,0-0.2,0.1c-0.2,0.1-0.3,0.1-0.5,0.2c-2.4,1.1-3.7,3.2-3.4,5.5c0.9,7,1.8,14.4,2.8,22.1c0.4,2.9,2.5,5.5,5.2,5.7
					c0.1,0,0.2,0,0.4,0c0.1,0,0.3,0,0.4,0c2.4-0.3,3.8-2.6,3.5-5.5c-0.2-2.1-0.4-4.2-0.7-6.4c0.3-0.1,0.5-0.1,0.8-0.2
					c4-1.2,6.4-3,7.7-5.4C46.7,55.1,46.9,50.8,44.9,46.8z M36.1,54.2c-0.1,0.1-0.4,0.4-1.2,0.7c0,0,0,0,0,0
					c-0.1-0.9-0.2-1.8-0.3-2.8c1.2-0.1,1.5,0.3,1.6,0.5C36.3,52.8,36.5,53.1,36.1,54.2z"/>
				<path id="XMLID_242_" class="st1" d="M97.5,42c-0.9-0.6-2.2-0.9-3.8-0.7c-0.3,0-0.5,0.1-0.8,0.1c-1.7,0.4-2.8,1.3-3.2,2.6
					c-0.2,0.8-0.4,1.5-0.6,2.3c-0.4-0.7-0.8-1.4-1.2-2.2c-0.8-1.4-2.6-2.2-4.7-2.1c-0.2,0-0.5,0-0.7,0.1c-1.7,0.3-2.9,1.2-3.2,2.6
					c-0.2,0.8-0.4,1.7-0.5,2.5c-0.4-0.8-0.8-1.6-1.2-2.4c-0.8-1.5-2.6-2.5-4.7-2.4c-0.2,0-0.5,0-0.7,0.1c-1.1,0.2-2.1,0.7-2.6,1.6
					c-0.2,0.3-0.4,0.7-0.5,1.1c-0.5-0.5-1-1.1-1.6-1.5c-2.3-1.8-5.4-2.7-9.1-2.5c-0.1,0-0.1,0-0.2,0c-0.7,0.1-1.3,0.2-2,0.3
					c-3.3,0.8-5.9,2.8-7.6,5.8c-2.4,4.2-3.3,9-2.6,13.8c0.5,3.4,1.9,6,4,7.6c2.9,2.1,6.3,2.2,10.2,0.7c0.5-0.2,1.1-0.4,1.6-0.7
					c3.1-1.6,5.5-3.9,7.3-6.7c1.9-3,2.8-5.9,2.7-8.9c1.3,2.4,2.5,4.8,3.8,7c1,1.8,2.4,2.6,4.2,2.6c0.6,0,1.3-0.1,1.9-0.3
					c0.2-0.1,0.4-0.1,0.5-0.2c1.7-0.8,2.7-2.1,3.2-4c0-0.1,0-0.2,0.1-0.3c0.1,0.1,0.1,0.2,0.2,0.3c0.9,1.6,2.2,2.4,3.9,2.7
					c0.1,0,0.2,0,0.3,0c0.4,0,0.8,0,1.2,0c0.2,0,0.5-0.1,0.7-0.1c0.2,0,0.3-0.1,0.5-0.1c1.7-0.5,2.8-1.7,3.2-3.6
					c0.9-3.5,1.9-7.1,2.8-10.8C98.8,44.9,99,43.1,97.5,42z M62.6,52.6c0.3,2.1-0.2,4.2-1.5,6.4c-0.4,0.6-0.8,1-1.5,1.3c0,0,0,0,0,0
					c-0.2,0.1-0.4,0.1-0.6,0.2c-1.2,0.3-2,0.3-2.7-0.2c-0.3-0.2-0.8-0.6-0.9-1.7c-0.4-2.5,0.1-4.7,1.5-6.6c0.6-0.8,1.2-1.3,2-1.5
					c0.2,0,0.3-0.1,0.5-0.1c0.1,0,0.2,0,0.3,0C61.7,50.1,62.3,50.6,62.6,52.6z"/>
				<path id="XMLID_241_" class="st1" d="M108.6,31.5c-0.6-0.3-1.7-0.3-3.4,0.4c-0.2,0.1-0.5,0.2-0.7,0.3c-0.3,0.1-0.6,0.3-0.9,0.5
					c-2,1.2-3.3,2.7-3.3,4.4c-0.1,4.9-0.2,9.7-0.3,14.5c0,0.7,0.2,1.3,0.5,1.7c-0.4,0.3-0.7,0.7-0.9,1.1c-0.3,0.5-0.4,1-0.4,1.5
					c0,0.7,0.2,1.4,0.7,2.1c0.5,0.7,1.3,1.4,2.2,1.8c0.7,0.4,1.5,0.6,2.3,0.7c0.1,0,0.2,0,0.4,0c0.1,0,0.2,0,0.3,0
					c0.3,0,0.6,0,0.8,0c0.8-0.1,1.4-0.3,2.1-0.7c0.8-0.5,1.3-1.2,1.6-2.1c0.1-0.4,0.2-0.8,0.2-1.4c0-0.3,0-0.6-0.1-0.9
					c-0.1-0.7-0.4-1.4-0.9-1.9c0.4-0.6,0.7-1.4,0.7-2.2c0.1-5.8,0.3-11.6,0.5-17.5C109.9,32.4,109.2,31.8,108.6,31.5z"/>
			</g>
			<g id="XMLID_214_">
				<g id="XMLID_233_">
					<path id="XMLID_237_" class="st3" d="M26.6,45.3c0.3-0.1,0.5-0.1,0.7-0.1c1.7-0.7,3.2-1.1,4.4-1.3c4-0.7,6.7,0.5,8.1,3.3
						c1.4,2.8,1.3,5.9-0.4,9c-1,1.8-3.8,3.4-8.3,4.1c-0.3,0.1-0.6,0.1-0.9,0.1c0.4,3.1,0.7,6.2,1.1,9.3c0.1,1.2-0.4,1.8-1.5,1.7
						c-1-0.1-1.5-0.7-1.7-1.9c-0.9-7.8-1.8-15.2-2.8-22.3C25.1,46.2,25.6,45.6,26.6,45.3z M28.7,48.1c0.3,2.9,0.7,5.9,1,9
						c4-0.1,6.3-1.2,7.1-3.2c0.7-2,0.6-3.7-0.3-5.1c-1.1-1.6-3-2.1-5.5-1.4C30.4,47.5,29.6,47.7,28.7,48.1z"/>
					<path id="XMLID_234_" class="st3" d="M30.2,73.3c-0.1,0-0.2,0-0.3,0c-2-0.2-3.5-2-3.8-4.2c-1-7.6-1.9-14.8-2.8-21.5
						c-0.2-1.7,0.9-3.3,2.8-4.1c0,0,0.2-0.1,0.2-0.1c0.3-0.1,0.5-0.2,0.8-0.2c1.8-0.7,3.3-1.2,4.5-1.5c5.9-1.1,8.7,1.8,9.9,4.2
						c1.8,3.5,1.6,7.3-0.4,11.1c-1.3,2.3-4.1,4.1-8.8,5c0.3,2.5,0.5,5,0.8,7.5C33.4,71.8,32.2,73.4,30.2,73.3z M31.5,54.9
						c0.2,0,0.4-0.1,0.6-0.1c0.9-0.2,2.5-0.7,2.9-1.7c0.6-1.6,0.3-2.5-0.1-3c-0.4-0.6-1.3-1.3-3.6-0.8c-0.1,0-0.2,0.1-0.3,0.1
						c0,0-0.1,0-0.1,0C31.1,51.2,31.3,53,31.5,54.9z"/>
				</g>
				<g id="XMLID_226_">
					<path id="XMLID_230_" class="st3" d="M56.7,42.7c5.7-0.5,9,2.2,9.7,7.4c0.5,3.4-0.2,6.5-2.1,9.6c-1.6,2.6-3.8,4.5-6.7,5.5
						c-3,1-5.6,0.8-7.7-0.8c-1.6-1.2-2.5-3-2.9-5.5c-0.6-3.9,0.1-7.8,2.1-11.3C50.8,44.7,53.3,43.1,56.7,42.7z M57.2,45.5
						c-2.1,0.2-3.8,1.1-5.2,3c-1.9,2.7-2.6,6-2.1,9.5c0.3,1.8,1,3.1,2.2,3.9c1.4,1,3.1,1.1,5.1,0.5c2-0.6,3.4-1.7,4.3-3.3
						c1.7-2.9,2.4-5.6,2-8.4C63.1,47,61,45.3,57.2,45.5z"/>
					<path id="XMLID_227_" class="st3" d="M57.9,67c-3.5,1.3-6.6,1-9.2-0.9c-1.9-1.4-3.1-3.8-3.6-6.8c-0.7-4.5,0.1-8.9,2.4-12.8
						c1.9-3.3,4.8-5.3,8.7-5.7c0.1,0,0.1,0,0.2,0c6.8-0.5,11.1,3.2,11.9,9.1c0.5,3.7-0.3,7.1-2.4,10.5C64.1,63.5,61.4,65.8,57.9,67z
						 M57,47.5c-1.4,0.2-2.4,0.9-3.3,2.1c-1.6,2.3-2.2,4.9-1.8,7.8c0.2,1.2,0.6,2.1,1.4,2.6c1,0.7,2.2,0.8,3.7,0.3
						c1.4-0.4,2.4-1.1,3-2.2c1.5-2.5,2-4.9,1.7-7.3c-0.3-2.7-1.5-3.7-4.3-3.4C57.2,47.5,57.1,47.5,57,47.5z"/>
				</g>
				<g id="XMLID_222_">
					<path id="XMLID_224_" class="st3" d="M88.4,57.3c-0.7-0.1-1.3-0.6-1.8-1.5c-1.4-2.5-2.9-5.1-4.4-7.7c-0.7,2.9-1.3,5.8-2,8.7
						c-0.2,1.1-0.7,1.8-1.3,2.1C78.8,59,78.6,59,78.3,59c-0.7,0-1.3-0.5-1.8-1.5c-1.9-3.4-3.9-7.1-5.8-11c-0.9-1.8-0.7-2.8,0.5-2.8
						c0.6,0,1,0.2,1.3,0.7c1.9,3.9,3.8,7.6,5.6,11c0.8-3.9,1.5-7.7,2.3-11.4c0.1-0.5,0.5-0.7,1.1-0.7c0.6,0,1.1,0.2,1.3,0.6
						c1.8,3.5,3.6,6.8,5.4,10c0.8-3.6,1.7-7.1,2.5-10.6c0.1-0.4,0.5-0.7,1.1-0.8c1.3-0.1,1.7,0.6,1.2,2.2c-0.9,3.5-1.9,7.1-2.8,10.6
						c-0.3,1-0.7,1.6-1.3,1.9C88.9,57.2,88.6,57.3,88.4,57.3z"/>
					<path id="XMLID_223_" class="st3" d="M89,58.6c-0.3,0-0.6,0-0.9,0c-0.1,0-0.1,0-0.2,0c-1.3-0.2-2.3-0.9-3-2.2
						c-0.6-1.1-1.2-2.1-1.8-3.2c-0.3,1.2-0.6,2.4-0.8,3.6c-0.1,0.6-0.5,2.4-2.4,3.3c-0.6,0.3-1.1,0.4-1.7,0.4c-2,0-3-1.6-3.3-2.2
						c-1.9-3.5-3.9-7.2-5.9-11.2c-0.5-1.1-1.2-2.7-0.3-4c0.5-0.7,1.3-1.1,2.4-1.2c1.5,0,2.8,0.7,3.3,1.8c1,2,2,4,3,5.9
						c0.4-2,0.8-4.1,1.2-6c0.2-1.2,1.3-1.9,2.8-1.9c1.5,0,2.8,0.6,3.4,1.6c1,1.8,1.9,3.6,2.8,5.3c0.4-1.9,0.9-3.7,1.3-5.6
						c0.3-1.1,1.4-1.8,2.8-2c0,0,0,0,0,0c1.1-0.1,2,0.1,2.7,0.5c1.2,0.8,0.9,2.2,0.7,3.2c-1,3.6-1.9,7.1-2.8,10.6
						c-0.1,0.6-0.6,2.3-2.5,2.9C89.5,58.5,89.2,58.6,89,58.6z"/>
				</g>
				<g id="XMLID_215_">
					<path id="XMLID_219_" class="st3" d="M101.8,53.1c0.2,0,0.3,0,0.5,0c0.2,0,0.4,0,0.6,0.1c0.3,0.1,0.7,0.2,0.9,0.4
						c0.3,0.2,0.5,0.5,0.5,0.8c0,0.1,0,0.3,0.1,0.5c0,0.2,0,0.3-0.1,0.4c-0.1,0.3-0.3,0.6-0.6,0.8c-0.3,0.2-0.7,0.3-1.1,0.3
						c-0.1,0-0.2,0-0.3,0c-0.3,0-0.6-0.1-0.9-0.2c-0.4-0.2-0.7-0.4-0.9-0.7c-0.2-0.3-0.3-0.5-0.3-0.8c0-0.2,0.1-0.4,0.2-0.6
						c0.1-0.2,0.3-0.4,0.6-0.6C101.2,53.3,101.5,53.2,101.8,53.1z M103,33.9c1-0.3,1.6-0.1,1.5,0.7c-0.1,5.2-0.3,10.4-0.4,15.6
						c0,0.7-0.5,1.1-1.6,1.1c0,0,0,0-0.1,0c-0.9,0-1.4-0.3-1.4-1.1c0.1-4.9,0.2-9.8,0.3-14.7c0,0,0,0,0,0
						C101.4,34.7,101.9,34.2,103,33.9C102.9,33.9,102.9,33.9,103,33.9z"/>
					<path id="XMLID_216_" class="st3" d="M102.5,57.9c-0.1,0-0.1,0-0.2,0c-0.6,0-1.2-0.2-1.8-0.4c-0.7-0.3-1.3-0.7-1.7-1.3
						c-0.4-0.5-0.5-1-0.5-1.5c0-0.4,0.1-0.8,0.3-1.1c0.3-0.5,0.6-0.8,1.1-1.2c0.1-0.1,0.2-0.1,0.3-0.2c-0.4-0.3-0.9-0.9-0.9-1.9
						c0.1-4.8,0.1-9.6,0.2-14.4c0-1.4,1.2-2.7,3.1-3.4c0.2-0.1,0.4-0.1,0.5-0.2c1.4-0.5,2.2-0.4,2.6-0.2c0.4,0.2,0.9,0.6,0.9,1.7
						c-0.2,5.5-0.3,10.8-0.4,16.2c0,0.9-0.4,1.6-1.1,2.1c0.1,0.1,0.2,0.2,0.3,0.2c0.5,0.4,0.9,1,1.1,1.6c0,0.3,0.1,0.5,0.1,0.7
						c0,0.4-0.1,0.7-0.1,1c-0.2,0.6-0.6,1.2-1.2,1.5c-0.6,0.4-1.4,0.6-2.2,0.6C102.7,57.9,102.6,57.9,102.5,57.9
						C102.5,57.9,102.5,57.9,102.5,57.9z M102.2,54.6c0,0,0,0.1-0.1,0.1c0,0,0.1,0.1,0.1,0.1c0,0,0.1,0,0.1,0c0.1,0,0.1,0,0.1-0.1
						c0,0,0-0.1,0-0.2c0,0.1,0,0.1,0.1,0.1c0.1-0.5,0.3-1,0.4-1.6c-0.2,0.5-0.3,1-0.5,1.5C102.4,54.6,102.3,54.6,102.2,54.6z"/>
				</g>
			</g>
		</g>
	</g>
</g>
</svg>
