<?xml version="1.0" encoding="utf-8"?>
<!-- Generator: Adobe Illustrator 19.0.0, SVG Export Plug-In . SVG Version: 6.00 Build 0)  -->
<svg version="1.1" id="_x2014_ÎÓÈ_x5F_1" xmlns="http://www.w3.org/2000/svg" xmlns:xlink="http://www.w3.org/1999/xlink"
	 x="0px" y="0px" viewBox="0 0 147.3 146" style="enable-background:new 0 0 147.3 146;" xml:space="preserve">
<style type="text/css">
	.st0{fill:#514629;}
	.st1{fill:#75653A;}
	.st2{fill:#98861C;}
	.st3{fill:#867418;}
	.st4{fill:#FFF4D4;}
	.st5{fill:#C5AF28;}
	.st6{fill:#8C7A18;}
	.st7{fill:#D89560;}
	.st8{fill:#C17A42;}
	.st9{fill:#ECB211;}
	.st10{fill:#4A4A34;}
	.st11{fill:#847219;}
	.st12{fill:#98861E;}
	.st13{fill:#A4901E;}
	.st14{fill:#AD9923;}
	.st15{fill:#DECF4E;}
	.st16{opacity:0.1;fill:#1C1C14;}
	.st17{fill:#7D6D15;}
	.st18{fill:#C9B329;}
	.st19{fill:#A99C29;}
	.st20{fill:#9D9123;}
	.st21{fill:#8A7F1F;}
	.st22{fill:#EEDE8C;}
	.st23{fill:#80761C;}
	.st24{fill:#C1AA27;}
	.st25{fill:#FAF2AC;}
	.st26{fill:#B9B16B;}
	.st27{fill:#7A693C;}
	.st28{fill:#685830;}
	.st29{fill:#91884E;}
	.st30{fill:#C4BB72;}
</style>
<g>
	<g>
		<path class="st0" d="M19.4,93.4c-0.4,0-8,0.2-8,0.2l-1.2-12.6l-5.6,0.5l1.9,16.2l12.4,1.9"/>
		<polygon class="st1" points="14.4,104.2 27.1,104.2 27.6,90.8 18.9,90.8 		"/>
		<polygon class="st2" points="21.1,100.2 12.4,100.2 6.9,109.2 7.3,116.1 17.9,116.1 		"/>
		<polygon class="st3" points="17.9,116.1 7.3,116.1 6.9,109.2 19.3,109.2 		"/>
		<path class="st4" d="M99.7,42.4c0,2.3-1.1,4.2-2.4,4.2c-1.3,0-4.4-1.9-4.4-4.2c0-2.3,3.1-4.2,4.4-4.2
			C98.6,38.3,99.7,40.1,99.7,42.4z"/>
		<g>
			<g>
				<g>
					<path class="st5" d="M98.3,37.4c0,0-11,2-11,5.4c0,3.4,11,4.7,11,4.7"/>
				</g>
			</g>
		</g>
		<path class="st6" d="M90.1,45L88,50.3h5.9l-2-5.2C91.6,44.2,90.4,44.2,90.1,45z"/>
		<rect x="45.1" y="82.1" class="st0" width="55.7" height="6.7"/>
		<g>
			<polyline class="st7" points="58.3,36.1 65.9,22.8 77.6,14.7 79,25.6 75.9,26.3 72.5,36.2 67.7,42.5 			"/>
			<polygon class="st8" points="61.3,30.9 63.8,29.7 69.9,30.1 72.9,22.5 78.2,19.6 77.6,14.7 65.9,22.8 			"/>
			<polygon class="st9" points="61.2,30.9 59.3,19.5 63.7,16.8 66.3,11.1 82.5,8.3 85.4,14.5 77.6,14.7 68.4,23.8 68.4,28.6 
				65.3,29.1 63.9,26.6 			"/>
			<polygon class="st10" points="53.6,76.1 49.6,51 58.3,36.2 69.2,40.8 73.8,61.1 			"/>
		</g>
		<rect x="44.8" y="45.6" class="st11" width="36.8" height="5.4"/>
		<ellipse transform="matrix(0.9657 -0.2598 0.2598 0.9657 -6.5726 9.9214)" class="st6" cx="34.2" cy="29.8" rx="5.2" ry="15.8"/>
		
			<rect x="18.6" y="26.1" transform="matrix(-0.2882 -0.9576 0.9576 -0.2882 20.1061 72.6033)" class="st5" width="36.8" height="5.4"/>
		<g>
			
				<rect x="52.9" y="64.4" transform="matrix(1 4.677946e-03 -4.677946e-03 1 0.3152 -0.4038)" class="st12" width="67.2" height="5.4"/>
			
				<rect x="52.9" y="67.7" transform="matrix(1 4.677946e-03 -4.677946e-03 1 0.3228 -0.4037)" class="st13" width="67.2" height="2.2"/>
			
				<rect x="78.4" y="59.7" transform="matrix(1 4.677946e-03 -4.677946e-03 1 0.2932 -0.5231)" class="st14" width="67.2" height="5.4"/>
			
				<rect x="78.4" y="59.7" transform="matrix(1 4.679434e-03 -4.679434e-03 1 0.2832 -0.5233)" class="st15" width="67.2" height="1.1"/>
			
				<rect x="141.8" y="59.8" transform="matrix(1 4.689091e-03 -4.689091e-03 1 0.295 -0.6731)" class="st16" width="3.7" height="5.4"/>
			
				<rect x="78.4" y="63" transform="matrix(1 4.677946e-03 -4.677946e-03 1 0.3009 -0.5231)" class="st13" width="67.2" height="2.2"/>
			<path class="st5" d="M98,56.3c0,0,15.6-4.4,11.5,12.1C106.5,80.4,98,56.3,98,56.3z"/>
		</g>
		<polygon class="st14" points="94.6,49.2 114.4,72.6 108.9,83.4 41.2,83.4 36,78.2 36,54.4 41.3,49.2 		"/>
		<polygon class="st6" points="108.9,83.4 41.2,83.4 36,78.2 114.4,72.6 		"/>
		<polygon class="st17" points="56.6,76.5 59.9,49.2 60.4,49.2 57.1,76.4 101.1,73.2 86.1,49.2 86.7,49.2 101.7,73.2 114.1,72.3 
			114.4,72.6 114.3,72.7 101.7,73.7 98.3,83.4 97.8,83.4 101.2,73.7 57,76.9 57,77.1 59.5,83.4 59,83.4 56.5,77.1 56.5,77 
			36.2,78.4 36,78.2 36,77.9 		"/>
		<polygon class="st18" points="120.4,90.1 134.4,94.1 145.2,108.4 139.2,119.9 		"/>
		<polygon class="st6" points="63.2,58.5 88.4,58.6 86.1,62.5 66.1,68.9 		"/>
		<path class="st19" d="M17,109.4c-0.7,0-1.2-0.8-0.9-1.4l7.2-19.1c0.4-0.6,1-0.9,1.7-0.9h95.5l14.6,13.5l2.4,6.3
			c0.6,0.6,0.1,1.7-0.8,1.7H17z"/>
		<path class="st20" d="M136.7,109.4H17c-0.7,0-1.2-0.8-0.9-1.4l2.4-6.5H135l2.4,6.3C138,108.4,137.6,109.4,136.7,109.4z"/>
		<g>
			<g>
				<g>
					<polygon class="st17" points="115.4,109.4 115.1,101.7 111.1,94.6 111.1,94.7 84.7,94.7 86.5,101.5 86.5,101.6 86.4,109.4 
						85.9,109.4 86,101.6 82.4,87.9 82.9,87.9 84.6,94.2 110.8,94.2 107.2,87.9 107.7,87.9 115.6,101.5 115.9,109.4 					"/>
				</g>
				<polygon class="st21" points="33.3,87.9 27.9,109.4 27.4,109.4 32.8,87.9 				"/>
			</g>
		</g>
		<polygon class="st22" points="75.2,53.6 78,59.3 84.4,60.2 79.8,64.7 80.9,71 75.2,68 69.6,71 70.6,64.7 66.1,60.2 72.4,59.3 		
			"/>
		<g>
			<g>
				<rect x="27.5" y="91.1" class="st20" width="11.1" height="15.1"/>
				<rect x="27.5" y="102" class="st23" width="11.1" height="4.2"/>
			</g>
			<g>
				<rect x="40.3" y="91.1" class="st20" width="11.1" height="15.1"/>
				<rect x="40.3" y="102" class="st23" width="11.1" height="4.2"/>
			</g>
			<g>
				<rect x="53.1" y="91.1" class="st20" width="11.1" height="15.1"/>
				<rect x="53.1" y="102" class="st23" width="11.1" height="4.2"/>
			</g>
			<g>
				<rect x="66" y="91.1" class="st20" width="11.1" height="15.1"/>
				<rect x="66" y="102" class="st23" width="11.1" height="4.2"/>
				<rect x="27.5" y="91.1" class="st24" width="11.1" height="3.1"/>
				<rect x="40.3" y="91.1" class="st24" width="11.1" height="3.1"/>
				<rect x="53.1" y="91.1" class="st24" width="11.1" height="3.1"/>
				<rect x="66" y="91.1" class="st24" width="11.1" height="3.1"/>
			</g>
		</g>
		<path class="st25" d="M64.9,22.1c0,0,5.1,13.4,7.8,13.4c2.8,0,0.9,3.9-0.3,3.4c-1.5-0.6-6.2-4.8-10.6-14.1L64.9,22.1z"/>
		<path class="st6" d="M76.8,8.8L61.2,30.9c0,0-15.1-8.7-6.9-21.9C62.5-4.2,76.8,8.8,76.8,8.8z"/>
		<path class="st26" d="M67.8,11.1L60,30.1c0,0-1.3-0.4-1.6-1.3l7.8-19.5"/>
		<path class="st26" d="M75.8,7.1c0,0-5.5,5.6-8.7,3.8c-3.2-1.8-0.2-8.5-0.2-8.5S72.4,2.9,75.8,7.1z"/>
		<path class="st0" d="M75.1,6.4c-0.5,0.5-4.5,4.3-6.9,2.9c-2.4-1.3-0.1-6,0.2-6.6C70.1,3.1,72.9,4.1,75.1,6.4z"/>
		<g>
			<path class="st27" d="M28.4,140.2c-3.4,0-6.7-1.5-8.9-4.1l-5-5.8c-3-3.6-3.7-8.2-1.7-12.5c2-4.2,5.9-6.8,10.6-6.8h107.2
				c5.7,0,9.3,3.7,10.8,7.2c1.4,3.5-0.1,8.6-4.2,12.7l-5.8,5.8c-2.2,2.2-5.2,3.4-8.3,3.4H28.4z"/>
			<path class="st28" d="M135.4,114.3c-0.3,0-99.8,0-118.9,0c1.9-1.4,4.3-3.2,6.9-3.2h107.2c2.2,0,4.1,0.6,5.7,1.4L135.4,114.3z"/>
			<g>
				
					<ellipse transform="matrix(0.901 0.4337 -0.4337 0.901 54.7584 3.1642)" class="st29" cx="20.4" cy="121.6" rx="8.6" ry="10.9"/>
				<ellipse transform="matrix(0.901 0.4337 -0.4337 0.901 54.759 3.1644)" class="st30" cx="20.4" cy="121.6" rx="3.8" ry="4.8"/>
			</g>
			<g>
				
					<ellipse transform="matrix(0.901 0.4337 -0.4337 0.901 60.1261 -4.2376)" class="st29" cx="39.3" cy="129.6" rx="8.6" ry="10.9"/>
				
					<ellipse transform="matrix(0.901 0.4337 -0.4337 0.901 60.1268 -4.2374)" class="st30" cx="39.3" cy="129.6" rx="3.8" ry="4.8"/>
			</g>
			<g>
				
					<ellipse transform="matrix(0.901 0.4337 -0.4337 0.901 62.5617 -14.9124)" class="st29" cx="64" cy="129.6" rx="8.6" ry="10.9"/>
				<ellipse transform="matrix(0.901 0.4337 -0.4337 0.901 62.5616 -14.9125)" class="st30" cx="64" cy="129.6" rx="3.8" ry="4.8"/>
			</g>
			<g>
				
					<ellipse transform="matrix(0.901 0.4337 -0.4337 0.901 64.9973 -25.5874)" class="st29" cx="88.6" cy="129.6" rx="8.6" ry="10.9"/>
				
					<ellipse transform="matrix(0.901 0.4337 -0.4337 0.901 64.9981 -25.5875)" class="st30" cx="88.6" cy="129.6" rx="3.8" ry="4.8"/>
			</g>
			<g>
				
					<ellipse transform="matrix(0.901 0.4337 -0.4337 0.901 67.4329 -36.2622)" class="st29" cx="113.2" cy="129.6" rx="8.6" ry="10.9"/>
				
					<ellipse transform="matrix(0.901 0.4337 -0.4337 0.901 67.4337 -36.2625)" class="st30" cx="113.2" cy="129.6" rx="3.8" ry="4.8"/>
			</g>
			<g>
				
					<ellipse transform="matrix(0.901 0.4337 -0.4337 0.901 65.9444 -45.8626)" class="st29" cx="133.5" cy="121.6" rx="8.6" ry="10.9"/>
				
					<ellipse transform="matrix(0.901 0.4337 -0.4337 0.901 65.9443 -45.8626)" class="st30" cx="133.5" cy="121.6" rx="3.8" ry="4.8"/>
			</g>
			<path class="st0" d="M11.6,132.8l5,5.8c3,3.5,7.3,5.5,11.8,5.5h94.8c4.1,0,8.1-1.7,11-4.6l5.8-5.8c5.1-5.1,7.1-11.9,5-16.9
				c-1.9-4.6-6.7-9.6-14.4-9.6H23.4c-6.2,0-11.5,3.4-14.1,9C6.7,121.9,7.5,128.1,11.6,132.8z M12.8,117.8c2-4.2,5.9-6.8,10.6-6.8
				h107.2c5.7,0,9.3,3.7,10.8,7.2c1.4,3.5-0.1,8.6-4.2,12.7l-5.8,5.8c-2.2,2.2-5.2,3.4-8.3,3.4H28.4c-3.4,0-6.7-1.5-8.9-4.1l-5-5.8
				C11.5,126.7,10.9,122.1,12.8,117.8z"/>
		</g>
		<polygon class="st0" points="12.9,80.1 1.4,80.4 6.2,75.4 		"/>
	</g>
</g>
</svg>
