<?xml version="1.0" encoding="utf-8"?>
<!-- Generator: Adobe Illustrator 19.0.0, SVG Export Plug-In . SVG Version: 6.00 Build 0)  -->
<svg version="1.1" id="_x2014_ÎÓÈ_x5F_1" xmlns="http://www.w3.org/2000/svg" xmlns:xlink="http://www.w3.org/1999/xlink"
	 x="0px" y="0px" viewBox="0 0 147.3 146" style="enable-background:new 0 0 147.3 146;" xml:space="preserve">
<style type="text/css">
	.st0{fill:#363531;}
	.st1{fill:#827E72;}
	.st2{fill:#ABA696;}
	.st3{fill:#DE9775;}
	.st4{fill:#C27550;}
	.st5{fill:#F8BB13;}
	.st6{fill:#59574E;}
	.st7{fill:#918D7F;}
	.st8{fill:#666359;}
	.st9{opacity:0.1;fill:#1C1C14;}
	.st10{fill:#FFF8E6;}
	.st11{fill:#A39E8F;}
	.st12{opacity:0.5;fill:#47453E;}
	.st13{fill:#57544C;}
	.st14{fill:#403D37;}
	.st15{fill:#21201C;}
	.st16{fill:#736F65;}
	.st17{fill:#6B675E;}
	.st18{fill:#B0AB9A;}
	.st19{fill:#B5AF9F;}
	.st20{fill:#ADA898;}
</style>
<g>
	<path class="st0" d="M135.8,89.7c0,0-6.4,1.8-6.8,1.9l-1.5,4.5l2.4,8.1l7.6-0.7l-4.5-7.7l8.1-2.2L135.8,89.7z"/>
	<polygon class="st0" points="135.6,87.2 143.4,93.6 142.7,87.6 	"/>
	
		<rect x="103.1" y="29.6" transform="matrix(0.9525 0.3044 -0.3044 0.9525 16.9101 -29.8453)" class="st1" width="2" height="19.4"/>
	<g>
		<g>
			<circle class="st2" cx="101.1" cy="49" r="2.1"/>
			<circle class="st2" cx="107.3" cy="29.7" r="2.1"/>
		</g>
	</g>
	<path class="st2" d="M99.5,41.7c4.2,1.4,8.2,0.9,8.8-1.1c0.6-2-2.3-4.6-6.5-6"/>
	<g>
		<polyline class="st3" points="76.7,42.1 70.1,30.5 59.8,23.3 58.6,33 61.3,33.5 64.3,42.2 68.5,47.8 		"/>
		<polygon class="st4" points="74.7,38.3 72.9,39.3 66.9,36.9 63.9,30.2 59.2,27.6 59.8,23.3 70.1,30.5 		"/>
		<polygon class="st5" points="67.8,29.5 65.9,36.6 66.9,36.8 69.1,34.8 73.1,38.6 74.6,38.3 79.4,32.3 		"/>
		<polygon class="st6" points="80.8,77.2 84.3,55.2 76.7,42.2 67.4,46.4 63.1,64.1 		"/>
	</g>
	<rect x="56.2" y="50.5" class="st7" width="32.3" height="4.7"/>
	
		<ellipse transform="matrix(-0.9657 -0.2598 0.2598 -0.9657 182.7277 97.3947)" class="st1" cx="97.8" cy="36.6" rx="4.5" ry="13.8"/>
	
		<rect x="79.2" y="33.4" transform="matrix(0.2882 -0.9576 0.9576 0.2882 33.636 116.7497)" class="st2" width="32.3" height="4.7"/>
	<path class="st6" d="M70.9,29.8c0,0-4.5,11.7-6.9,11.7c-2.4,0-0.8,3.4,0.3,3c1.3-0.5,6-4.8,10-13L70.9,29.8z"/>
	<path class="st1" d="M57.7,29L81,33c0,0,3.9-14.8-9.3-17.9C58.5,12,57.7,29,57.7,29z"/>
	<path class="st6" d="M64.6,24.8l16.7,7c0,0,0.5-1.1,0.2-1.8l-17-7.2"/>
	<path class="st6" d="M57.2,27.2c0,0,6.9,0.1,7.7-3.1c0.9-3.1-5.2-5.4-5.2-5.4S56.7,22.6,57.2,27.2z"/>
	<path class="st0" d="M57.2,26.4c0.6,0,5.5-0.2,6.1-2.5c0.6-2.3-3.7-3.8-4.2-4C58.2,21.3,57.1,23.6,57.2,26.4z"/>
	<rect x="45.4" y="77.7" class="st0" width="48.8" height="5.8"/>
	<g>
		
			<rect x="29.8" y="68.2" transform="matrix(-1 4.677953e-03 -4.677953e-03 -1 118.7869 140.9634)" class="st1" width="58.9" height="4.8"/>
		
			<rect x="29.8" y="71.1" transform="matrix(-1 4.677953e-03 -4.677953e-03 -1 118.807 143.8422)" class="st8" width="58.9" height="1.9"/>
		
			<rect x="5.7" y="64.1" transform="matrix(-1 4.542687e-03 -4.542687e-03 -1 72.2704 132.7443)" class="st1" width="60.7" height="4.8"/>
		
			<rect x="5.6" y="64.1" transform="matrix(-1 4.544126e-03 -4.544126e-03 -1 72.2442 128.9656)" class="st2" width="60.7" height="1"/>
		
			<rect x="5.7" y="64.2" transform="matrix(-1 4.689217e-03 -4.689217e-03 -1 14.8681 133.1339)" class="st9" width="3.3" height="4.8"/>
		
			<rect x="5.7" y="66.9" transform="matrix(-1 4.542687e-03 -4.542687e-03 -1 72.2904 135.6231)" class="st8" width="60.7" height="1.9"/>
		<path class="st2" d="M49.1,61.1c0,0-13.7-3.9-10.1,10.6C41.6,82.2,49.1,61.1,49.1,61.1z"/>
	</g>
	<polygon class="st1" points="101.8,76.5 100,57.9 95.4,53.3 48.6,53.3 35.9,75.5 37.4,79.1 100.6,79.1 	"/>
	<polygon class="st8" points="81.1,61.1 58.9,61.2 60.9,64.6 78.5,70.2 	"/>
	<polygon class="st10" points="77.9,68.8 73.9,64.8 77.9,60.9 74.9,57.9 70.9,61.9 66.9,57.9 63.9,60.9 67.9,64.8 63.9,68.8 
		66.9,71.8 70.9,67.8 74.9,71.8 	"/>
	<polygon class="st7" points="48.6,53.3 35.9,75.5 37.4,79.1 46.5,72.1 52.4,53.3 	"/>
	<polygon class="st1" points="68.5,47.1 68.4,44.3 76.9,40.4 77.6,42.7 	"/>
	<polygon class="st8" points="37.4,79.1 46.5,72.1 101.8,76.5 100.6,79.1 	"/>
	
		<rect x="111.2" y="80.7" transform="matrix(0.6255 -0.7802 0.7802 0.6255 -26.7054 121.6491)" class="st7" width="4.3" height="15.8"/>
	<path class="st11" d="M119.6,90.9L119.6,90.9c1.3-1.6,1-4-0.6-5.3l-3.8-3.1c-1.6-1.3-4-1-5.3,0.6l0,0L119.6,90.9z"/>
	<polygon class="st7" points="122.5,100.2 138.1,100 145.3,106.8 124.7,106.8 	"/>
	<polygon class="st8" points="145.3,106.8 137.9,121.4 130,108.8 126.7,103 	"/>
	<polygon class="st1" points="30.4,115.8 17.3,107.9 31.5,82.9 104.8,82.9 137.8,107.9 	"/>
	<polygon class="st8" points="22.5,107.9 18,118.5 29.9,132.1 133.4,132.1 137.8,107.9 	"/>
	<polygon class="st12" points="59.6,113.7 59.6,99.1 55.5,96.5 54.9,114 	"/>
	<polygon class="st12" points="94.5,113.7 94.5,98.2 90.5,96.5 89.8,114 	"/>
	<polygon class="st12" points="125,115 129.4,114.7 129.4,101.6 125.4,98.5 	"/>
	<polygon class="st12" points="27,98.5 31.1,99.8 24.7,117.9 17,118.9 	"/>
	<polygon class="st13" points="27.2,90.5 114.7,90.5 114.3,90.1 27.4,90.1 	"/>
	<g>
		<path class="st14" d="M122.2,141.1c3,0,5.8-1.3,7.8-3.6l4.4-5.1c2.7-3.1,3.2-7.2,1.5-10.9c-1.7-3.7-5.2-5.9-9.3-5.9h-94
			c-5,0-8.2,3.3-9.5,6.3c-1.3,3,0.1,7.6,3.7,11.2l5.1,5.1c1.9,1.9,4.6,3,7.3,3H122.2z"/>
		<path class="st15" d="M28.3,118.3c0.3,0,87.5,0,104.3,0c-1.7-1.3-3.8-2.8-6.1-2.8h-94c-1.9,0-3.6,0.5-5,1.3L28.3,118.3z"/>
		<g>
			
				<ellipse transform="matrix(-0.901 0.4337 -0.4337 -0.901 299.7083 181.0332)" class="st1" cx="129.2" cy="124.7" rx="7.5" ry="9.5"/>
			
				<ellipse transform="matrix(-0.901 0.4337 -0.4337 -0.901 299.7086 181.0323)" class="st2" cx="129.2" cy="124.7" rx="3.3" ry="4.2"/>
		</g>
		<g>
			
				<ellipse transform="matrix(-0.901 0.4337 -0.4337 -0.901 271.253 201.6689)" class="st1" cx="112.6" cy="131.8" rx="7.5" ry="9.5"/>
			
				<ellipse transform="matrix(-0.901 0.4337 -0.4337 -0.901 271.2534 201.6681)" class="st2" cx="112.6" cy="131.8" rx="3.3" ry="4.2"/>
		</g>
		<g>
			
				<ellipse transform="matrix(-0.901 0.4337 -0.4337 -0.901 230.2146 211.0323)" class="st1" cx="91" cy="131.8" rx="7.5" ry="9.5"/>
			<ellipse transform="matrix(-0.901 0.4337 -0.4337 -0.901 230.215 211.0315)" class="st2" cx="91" cy="131.8" rx="3.3" ry="4.2"/>
		</g>
		<g>
			
				<ellipse transform="matrix(-0.901 0.4337 -0.4337 -0.901 189.1763 220.3956)" class="st1" cx="69.4" cy="131.8" rx="7.5" ry="9.5"/>
			
				<ellipse transform="matrix(-0.901 0.4337 -0.4337 -0.901 189.1767 220.395)" class="st2" cx="69.4" cy="131.8" rx="3.3" ry="4.2"/>
		</g>
		<g>
			
				<ellipse transform="matrix(-0.901 0.4337 -0.4337 -0.901 148.1382 229.7587)" class="st1" cx="47.9" cy="131.8" rx="7.5" ry="9.5"/>
			
				<ellipse transform="matrix(-0.901 0.4337 -0.4337 -0.901 148.1378 229.759)" class="st2" cx="47.9" cy="131.8" rx="3.3" ry="4.2"/>
		</g>
		<g>
			
				<ellipse transform="matrix(-0.901 0.4337 -0.4337 -0.901 111.2302 224.0365)" class="st1" cx="30.1" cy="124.7" rx="7.5" ry="9.5"/>
			
				<ellipse transform="matrix(-0.901 0.4337 -0.4337 -0.901 111.2307 224.0361)" class="st2" cx="30.1" cy="124.7" rx="3.3" ry="4.2"/>
		</g>
		<path class="st0" d="M139,120c-2.3-5-6.9-7.9-12.4-7.9h-94c-6.7,0-10.9,4.3-12.6,8.4c-1.8,4.4-0.1,10.4,4.4,14.8l5.1,5.1
			c2.5,2.6,6.1,4,9.7,4h83.1c4,0,7.8-1.7,10.4-4.8l4.4-5.1C140.5,130.4,141.3,125,139,120z M134.4,132.4l-4.4,5.1
			c-1.9,2.3-4.8,3.6-7.8,3.6H39.1c-2.7,0-5.4-1.1-7.3-3l-5.1-5.1c-3.5-3.6-4.9-8.1-3.7-11.2c1.3-3,4.4-6.3,9.5-6.3h94
			c4.1,0,7.6,2.2,9.3,5.9C137.6,125.1,137,129.2,134.4,132.4z"/>
	</g>
	<g>
		<polygon class="st16" points="28.5,93.7 30.7,96.5 20.5,119.6 22.9,135.6 19.9,137.3 16.9,118 		"/>
		<polygon class="st7" points="28.5,93.7 21,91.7 16.9,93.2 17.4,94.6 4.7,113.1 2.3,113.4 1.3,114.8 9.6,135.6 19.9,137.3 
			17.4,119.8 		"/>
		<polygon class="st11" points="21,91.7 16.9,93.2 27.2,96.9 28.5,93.7 		"/>
		<polygon class="st16" points="4.7,113.1 6.5,113.4 18.4,95.3 17.4,94.6 		"/>
		<polygon class="st16" points="20.1,96.1 8.6,114 11.2,114.9 21.6,96.6 		"/>
		<polygon class="st16" points="23.2,97 13.3,115.8 15.7,116.7 24.8,97.5 		"/>
		<polygon class="st1" points="1.3,114.8 17.4,119.8 19.9,137.3 9.6,135.6 		"/>
	</g>
	<g>
		<g>
			<polygon class="st17" points="32.5,97.2 55.5,97.2 56.4,116.5 30.6,116.5 			"/>
			<rect x="30.6" y="115.4" class="st7" width="25.8" height="2.8"/>
			<polygon class="st7" points="53,95.2 57.1,95.2 57.1,118.1 52.1,118.1 			"/>
			<polygon class="st7" points="46.1,95.2 50.1,95.2 49.2,118.1 45.1,118.1 			"/>
			<polygon class="st7" points="39.2,95.2 43.2,95.2 42.2,118.1 38.2,118.1 			"/>
			<polygon class="st7" points="32.2,95.2 36.2,95.2 35.3,118.1 29.3,118.1 			"/>
		</g>
	</g>
	<g>
		<g>
			<polygon class="st17" points="125,97.2 102.1,97.2 101.1,116.5 127,116.5 			"/>
			<rect x="101.1" y="115.4" class="st7" width="25.8" height="2.8"/>
			<polygon class="st7" points="104.5,95.2 100.5,95.2 100.5,118.1 105.5,118.1 			"/>
			<polygon class="st7" points="111.5,95.2 107.4,95.2 108.4,118.1 112.4,118.1 			"/>
			<polygon class="st7" points="118.4,95.2 114.4,95.2 115.4,118.1 119.4,118.1 			"/>
			<polygon class="st7" points="125.4,95.2 121.3,95.2 122.3,118.1 128.3,118.1 			"/>
		</g>
	</g>
	<g>
		<g>
			<polygon class="st17" points="64.2,97.2 90.1,97.2 89,116.5 65.3,116.5 			"/>
			<rect x="65.3" y="115.4" class="st7" width="23.7" height="2.8"/>
			<rect x="87.3" y="95.2" class="st7" width="4.6" height="23"/>
			<rect x="79.5" y="95.2" class="st7" width="4.6" height="23"/>
			<rect x="71.6" y="95.2" class="st7" width="4.6" height="23"/>
			<rect x="63.8" y="95.2" class="st7" width="4.6" height="23"/>
		</g>
	</g>
	<polygon class="st11" points="46,98 50,98 50.1,95.2 46.1,95.2 	"/>
	<polygon class="st11" points="125.4,95.2 121.3,95.2 121.5,98 125.7,98 	"/>
	<polygon class="st11" points="118.4,95.2 114.4,95.2 114.5,98 118.5,98 	"/>
	<polygon class="st11" points="111.5,95.2 107.4,95.2 107.6,98 111.6,98 	"/>
	<polygon class="st18" points="104.7,98 104.5,95.2 100.5,95.2 100.5,98 	"/>
	<rect x="87.3" y="95.2" class="st11" width="4.6" height="2.9"/>
	<rect x="79.5" y="95.2" class="st11" width="4.6" height="2.9"/>
	<rect x="71.6" y="95.2" class="st18" width="4.6" height="2.9"/>
	<rect x="63.8" y="95.2" class="st11" width="4.6" height="2.9"/>
	<polygon class="st19" points="52.9,98 57.1,98 57.1,95.2 53,95.2 	"/>
	<polygon class="st20" points="31.9,98 36.1,98 36.2,95.2 32.2,95.2 	"/>
	<polygon class="st20" points="39,98 43.1,98 43.2,95.2 39.2,95.2 	"/>
</g>
</svg>
